# MagicaVoxel @ Ephtracy

# group
o 

# material
mtllib smelter.mtl
usemtl palette

# normals
vn -1 0 0
vn 1 0 0
vn 0 0 1
vn 0 0 -1
vn 0 -1 0
vn 0 1 0

# texcoords
vt 0.0644531 0.5
vt 0.978516 0.5
vt 0.982422 0.5
vt 0.986328 0.5
vt 0.990234 0.5

# verts
v 0 2.4 -1.5
v 0 2.4 -2.3
v 0 2.5 -1.6
v 0 2.5 -2.2
v 0 3.1 -1.6
v 0 3.1 -2.2
v 0 3.2 -1.5
v 0 3.2 -2.3
v 0.1 2 0
v 0.1 2 -2.6
v 0.1 2.2 0
v 0.1 2.2 -2.6
v 0.1 2.6 0
v 0.1 2.6 -1.2
v 0.1 3 0
v 0.1 3 -1.2
v 0.1 3.4 0
v 0.1 3.4 -2.6
v 0.1 3.6 0
v 0.1 3.6 -2.6
v 0.2 2.2 -0.1
v 0.2 2.2 -2.5
v 0.2 2.4 -1.5
v 0.2 2.4 -2.3
v 0.2 2.6 -0.1
v 0.2 2.6 -1.2
v 0.2 3 -0.1
v 0.2 3 -1.2
v 0.2 3.2 -1.5
v 0.2 3.2 -2.3
v 0.2 3.4 -0.1
v 0.2 3.4 -2.5
v 0.3 2.5 -1.6
v 0.3 2.5 -2.2
v 0.3 3.1 -1.6
v 0.3 3.1 -2.2
v 0.7 2.6 -2.5
v 0.7 2.6 -2.6
v 0.7 3 -2.5
v 0.7 3 -2.6
v 2.4 2.4 -0.3
v 2.4 2.4 -1.1
v 2.4 3.2 -0.3
v 2.4 3.2 -1.1
v 2.5 2.2 -0.2
v 2.5 2.2 -2.4
v 2.5 2.4 -0.3
v 2.5 2.4 -1.1
v 2.5 3.2 -0.3
v 2.5 3.2 -1.1
v 2.5 3.4 -0.2
v 2.5 3.4 -2.4
v 0.3 2.2 -0.2
v 0.3 2.2 -2.4
v 0.3 2.4 -1.5
v 0.3 2.4 -2.3
v 0.3 3.2 -1.5
v 0.3 3.2 -2.3
v 0.3 3.4 -0.2
v 0.3 3.4 -2.4
v 0.4 2.4 -1.5
v 0.4 2.4 -2.3
v 0.4 3.2 -1.5
v 0.4 3.2 -2.3
v 2.1 2.6 0
v 2.1 2.6 -0.1
v 2.1 3 0
v 2.1 3 -0.1
v 2.5 2.5 -0.4
v 2.5 2.5 -1
v 2.5 3.1 -0.4
v 2.5 3.1 -1
v 2.6 2.2 -0.1
v 2.6 2.2 -2.5
v 2.6 2.4 -0.3
v 2.6 2.4 -1.1
v 2.6 2.6 -1.4
v 2.6 2.6 -2.5
v 2.6 3 -1.4
v 2.6 3 -2.5
v 2.6 3.2 -0.3
v 2.6 3.2 -1.1
v 2.6 3.4 -0.1
v 2.6 3.4 -2.5
v 2.7 2 0
v 2.7 2 -2.6
v 2.7 2.2 0
v 2.7 2.2 -2.6
v 2.7 2.6 -1.4
v 2.7 2.6 -2.6
v 2.7 3 -1.4
v 2.7 3 -2.6
v 2.7 3.4 0
v 2.7 3.4 -2.6
v 2.7 3.6 0
v 2.7 3.6 -2.6
v 2.8 2.4 -0.3
v 2.8 2.4 -1.1
v 2.8 2.5 -0.4
v 2.8 2.5 -1
v 2.8 3.1 -0.4
v 2.8 3.1 -1
v 2.8 3.2 -0.3
v 2.8 3.2 -1.1
v 0.1 2 0
v 0.1 2.2 0
v 0.1 2.6 0
v 0.1 3 0
v 0.1 3.4 0
v 0.1 3.6 0
v 2.1 2.6 0
v 2.1 3 0
v 2.7 2 0
v 2.7 2.2 0
v 2.7 3.4 0
v 2.7 3.6 0
v 0.2 2.2 -0.1
v 0.2 2.6 -0.1
v 0.2 3 -0.1
v 0.2 3.4 -0.1
v 2.1 2.6 -0.1
v 2.1 3 -0.1
v 2.6 2.2 -0.1
v 2.6 3.4 -0.1
v 2.4 2.4 -0.3
v 2.4 3.2 -0.3
v 2.5 2.4 -0.3
v 2.5 3.2 -0.3
v 2.6 2.4 -0.3
v 2.6 3.2 -0.3
v 2.8 2.4 -0.3
v 2.8 3.2 -0.3
v 2.5 2.5 -1
v 2.5 3.1 -1
v 2.8 2.5 -1
v 2.8 3.1 -1
v 2.6 2.6 -1.4
v 2.6 3 -1.4
v 2.7 2.6 -1.4
v 2.7 3 -1.4
v 0 2.4 -1.5
v 0 3.2 -1.5
v 0.2 2.4 -1.5
v 0.2 3.2 -1.5
v 0.3 2.4 -1.5
v 0.3 3.2 -1.5
v 0.4 2.4 -1.5
v 0.4 3.2 -1.5
v 0 2.5 -2.2
v 0 3.1 -2.2
v 0.3 2.5 -2.2
v 0.3 3.1 -2.2
v 0.3 2.2 -2.4
v 0.3 3.4 -2.4
v 2.5 2.2 -2.4
v 2.5 3.4 -2.4
v 0.3 2.2 -0.2
v 0.3 3.4 -0.2
v 2.5 2.2 -0.2
v 2.5 3.4 -0.2
v 2.5 2.5 -0.4
v 2.5 3.1 -0.4
v 2.8 2.5 -0.4
v 2.8 3.1 -0.4
v 2.4 2.4 -1.1
v 2.4 3.2 -1.1
v 2.5 2.4 -1.1
v 2.5 3.2 -1.1
v 2.6 2.4 -1.1
v 2.6 3.2 -1.1
v 2.8 2.4 -1.1
v 2.8 3.2 -1.1
v 0.1 2.6 -1.2
v 0.1 3 -1.2
v 0.2 2.6 -1.2
v 0.2 3 -1.2
v 0 2.5 -1.6
v 0 3.1 -1.6
v 0.3 2.5 -1.6
v 0.3 3.1 -1.6
v 0 2.4 -2.3
v 0 3.2 -2.3
v 0.2 2.4 -2.3
v 0.2 3.2 -2.3
v 0.3 2.4 -2.3
v 0.3 3.2 -2.3
v 0.4 2.4 -2.3
v 0.4 3.2 -2.3
v 0.2 2.2 -2.5
v 0.2 3.4 -2.5
v 0.7 2.6 -2.5
v 0.7 3 -2.5
v 2.6 2.2 -2.5
v 2.6 2.6 -2.5
v 2.6 3 -2.5
v 2.6 3.4 -2.5
v 0.1 2 -2.6
v 0.1 2.2 -2.6
v 0.1 3.4 -2.6
v 0.1 3.6 -2.6
v 0.7 2.6 -2.6
v 0.7 3 -2.6
v 2.7 2 -2.6
v 2.7 2.2 -2.6
v 2.7 2.6 -2.6
v 2.7 3 -2.6
v 2.7 3.4 -2.6
v 2.7 3.6 -2.6
v 0.1 2 0
v 2.7 2 0
v 0.1 2 -2.6
v 2.7 2 -2.6
v 2.4 2.4 -0.3
v 2.5 2.4 -0.3
v 2.6 2.4 -0.3
v 2.8 2.4 -0.3
v 2.4 2.4 -1.1
v 2.5 2.4 -1.1
v 2.6 2.4 -1.1
v 2.8 2.4 -1.1
v 0 2.4 -1.5
v 0.2 2.4 -1.5
v 0.3 2.4 -1.5
v 0.4 2.4 -1.5
v 0 2.4 -2.3
v 0.2 2.4 -2.3
v 0.3 2.4 -2.3
v 0.4 2.4 -2.3
v 0.1 2.6 0
v 2.1 2.6 0
v 0.2 2.6 -0.1
v 2.1 2.6 -0.1
v 0.1 2.6 -1.2
v 0.2 2.6 -1.2
v 2.6 2.6 -1.4
v 2.7 2.6 -1.4
v 0.7 2.6 -2.5
v 2.6 2.6 -2.5
v 0.7 2.6 -2.6
v 2.7 2.6 -2.6
v 2.5 3.1 -0.4
v 2.8 3.1 -0.4
v 2.5 3.1 -1
v 2.8 3.1 -1
v 0 3.1 -1.6
v 0.3 3.1 -1.6
v 0 3.1 -2.2
v 0.3 3.1 -2.2
v 0.1 3.4 0
v 2.7 3.4 0
v 0.2 3.4 -0.1
v 2.6 3.4 -0.1
v 0.3 3.4 -0.2
v 2.5 3.4 -0.2
v 0.3 3.4 -2.4
v 2.5 3.4 -2.4
v 0.2 3.4 -2.5
v 2.6 3.4 -2.5
v 0.1 3.4 -2.6
v 2.7 3.4 -2.6
v 0.1 2.2 0
v 2.7 2.2 0
v 0.2 2.2 -0.1
v 2.6 2.2 -0.1
v 0.3 2.2 -0.2
v 2.5 2.2 -0.2
v 0.3 2.2 -2.4
v 2.5 2.2 -2.4
v 0.2 2.2 -2.5
v 2.6 2.2 -2.5
v 0.1 2.2 -2.6
v 2.7 2.2 -2.6
v 2.5 2.5 -0.4
v 2.8 2.5 -0.4
v 2.5 2.5 -1
v 2.8 2.5 -1
v 0 2.5 -1.6
v 0.3 2.5 -1.6
v 0 2.5 -2.2
v 0.3 2.5 -2.2
v 0.1 3 0
v 2.1 3 0
v 0.2 3 -0.1
v 2.1 3 -0.1
v 0.1 3 -1.2
v 0.2 3 -1.2
v 2.6 3 -1.4
v 2.7 3 -1.4
v 0.7 3 -2.5
v 2.6 3 -2.5
v 0.7 3 -2.6
v 2.7 3 -2.6
v 2.4 3.2 -0.3
v 2.5 3.2 -0.3
v 2.6 3.2 -0.3
v 2.8 3.2 -0.3
v 2.4 3.2 -1.1
v 2.5 3.2 -1.1
v 2.6 3.2 -1.1
v 2.8 3.2 -1.1
v 0 3.2 -1.5
v 0.2 3.2 -1.5
v 0.3 3.2 -1.5
v 0.4 3.2 -1.5
v 0 3.2 -2.3
v 0.2 3.2 -2.3
v 0.3 3.2 -2.3
v 0.4 3.2 -2.3
v 0.1 3.6 0
v 2.7 3.6 0
v 0.1 3.6 -2.6
v 2.7 3.6 -2.6

# faces
f 3/4/1 2/4/1 1/4/1
f 4/4/1 2/4/1 3/4/1
f 5/4/1 3/4/1 1/4/1
f 6/4/1 2/4/1 4/4/1
f 7/4/1 5/4/1 1/4/1
f 7/4/1 6/4/1 5/4/1
f 8/4/1 2/4/1 6/4/1
f 8/4/1 6/4/1 7/4/1
f 11/3/1 10/3/1 9/3/1
f 12/3/1 10/3/1 11/3/1
f 15/1/1 14/1/1 13/1/1
f 16/1/1 14/1/1 15/1/1
f 19/3/1 18/3/1 17/3/1
f 20/3/1 18/3/1 19/3/1
f 23/2/1 22/2/1 21/2/1
f 24/2/1 22/2/1 23/2/1
f 25/2/1 23/2/1 21/2/1
f 26/2/1 23/2/1 25/2/1
f 28/2/1 23/2/1 26/2/1
f 29/2/1 23/2/1 28/2/1
f 29/2/1 28/2/1 27/2/1
f 30/2/1 22/2/1 24/2/1
f 31/2/1 29/2/1 27/2/1
f 31/2/1 30/2/1 29/2/1
f 32/2/1 22/2/1 30/2/1
f 32/2/1 30/2/1 31/2/1
f 35/5/1 34/5/1 33/5/1
f 36/5/1 34/5/1 35/5/1
f 39/1/1 38/1/1 37/1/1
f 40/1/1 38/1/1 39/1/1
f 43/5/1 42/5/1 41/5/1
f 44/5/1 42/5/1 43/5/1
f 47/2/1 46/2/1 45/2/1
f 48/2/1 46/2/1 47/2/1
f 49/2/1 47/2/1 45/2/1
f 50/2/1 46/2/1 48/2/1
f 51/2/1 49/2/1 45/2/1
f 51/2/1 50/2/1 49/2/1
f 52/2/1 46/2/1 50/2/1
f 52/2/1 50/2/1 51/2/1
f 53/2/2 54/2/2 55/2/2
f 55/2/2 54/2/2 56/2/2
f 53/2/2 55/2/2 57/2/2
f 56/2/2 54/2/2 58/2/2
f 53/2/2 57/2/2 59/2/2
f 57/2/2 58/2/2 59/2/2
f 58/2/2 54/2/2 60/2/2
f 59/2/2 58/2/2 60/2/2
f 61/5/2 62/5/2 63/5/2
f 63/5/2 62/5/2 64/5/2
f 65/1/2 66/1/2 67/1/2
f 67/1/2 66/1/2 68/1/2
f 69/5/2 70/5/2 71/5/2
f 71/5/2 70/5/2 72/5/2
f 73/2/2 74/2/2 75/2/2
f 75/2/2 74/2/2 76/2/2
f 76/2/2 74/2/2 77/2/2
f 77/2/2 74/2/2 78/2/2
f 76/2/2 77/2/2 79/2/2
f 73/2/2 75/2/2 81/2/2
f 79/2/2 80/2/2 82/2/2
f 76/2/2 79/2/2 82/2/2
f 73/2/2 81/2/2 83/2/2
f 81/2/2 82/2/2 83/2/2
f 82/2/2 80/2/2 84/2/2
f 83/2/2 82/2/2 84/2/2
f 85/3/2 86/3/2 87/3/2
f 87/3/2 86/3/2 88/3/2
f 89/1/2 90/1/2 91/1/2
f 91/1/2 90/1/2 92/1/2
f 93/3/2 94/3/2 95/3/2
f 95/3/2 94/3/2 96/3/2
f 97/4/2 98/4/2 99/4/2
f 99/4/2 98/4/2 100/4/2
f 97/4/2 99/4/2 101/4/2
f 100/4/2 98/4/2 102/4/2
f 97/4/2 101/4/2 103/4/2
f 101/4/2 102/4/2 103/4/2
f 102/4/2 98/4/2 104/4/2
f 103/4/2 102/4/2 104/4/2
f 111/1/3 108/1/3 107/1/3
f 112/1/3 108/1/3 111/1/3
f 113/3/3 106/3/3 105/3/3
f 114/3/3 106/3/3 113/3/3
f 115/3/3 110/3/3 109/3/3
f 116/3/3 110/3/3 115/3/3
f 121/2/3 118/2/3 117/2/3
f 122/2/3 120/2/3 119/2/3
f 123/2/3 121/2/3 117/2/3
f 123/2/3 122/2/3 121/2/3
f 124/2/3 120/2/3 122/2/3
f 124/2/3 122/2/3 123/2/3
f 127/5/3 126/5/3 125/5/3
f 128/5/3 126/5/3 127/5/3
f 131/4/3 130/4/3 129/4/3
f 132/4/3 130/4/3 131/4/3
f 135/4/3 134/4/3 133/4/3
f 136/4/3 134/4/3 135/4/3
f 139/1/3 138/1/3 137/1/3
f 140/1/3 138/1/3 139/1/3
f 143/4/3 142/4/3 141/4/3
f 144/4/3 142/4/3 143/4/3
f 147/5/3 146/5/3 145/5/3
f 148/5/3 146/5/3 147/5/3
f 151/4/3 150/4/3 149/4/3
f 152/4/3 150/4/3 151/4/3
f 155/2/3 154/2/3 153/2/3
f 156/2/3 154/2/3 155/2/3
f 157/2/4 158/2/4 159/2/4
f 159/2/4 158/2/4 160/2/4
f 161/4/4 162/4/4 163/4/4
f 163/4/4 162/4/4 164/4/4
f 165/5/4 166/5/4 167/5/4
f 167/5/4 166/5/4 168/5/4
f 169/4/4 170/4/4 171/4/4
f 171/4/4 170/4/4 172/4/4
f 173/1/4 174/1/4 175/1/4
f 175/1/4 174/1/4 176/1/4
f 177/4/4 178/4/4 179/4/4
f 179/4/4 178/4/4 180/4/4
f 181/4/4 182/4/4 183/4/4
f 183/4/4 182/4/4 184/4/4
f 185/5/4 186/5/4 187/5/4
f 187/5/4 186/5/4 188/5/4
f 189/2/4 190/2/4 191/2/4
f 191/2/4 190/2/4 192/2/4
f 189/2/4 191/2/4 193/2/4
f 193/2/4 191/2/4 194/2/4
f 192/2/4 190/2/4 195/2/4
f 195/2/4 190/2/4 196/2/4
f 197/3/4 198/3/4 203/3/4
f 203/3/4 198/3/4 204/3/4
f 201/1/4 202/1/4 205/1/4
f 205/1/4 202/1/4 206/1/4
f 199/3/4 200/3/4 207/3/4
f 207/3/4 200/3/4 208/3/4
f 211/3/5 210/3/5 209/3/5
f 212/3/5 210/3/5 211/3/5
f 217/5/5 214/5/5 213/5/5
f 218/5/5 214/5/5 217/5/5
f 219/4/5 216/4/5 215/4/5
f 220/4/5 216/4/5 219/4/5
f 225/4/5 222/4/5 221/4/5
f 226/4/5 222/4/5 225/4/5
f 227/5/5 224/5/5 223/5/5
f 228/5/5 224/5/5 227/5/5
f 231/1/5 230/1/5 229/1/5
f 232/1/5 230/1/5 231/1/5
f 233/1/5 231/1/5 229/1/5
f 234/1/5 231/1/5 233/1/5
f 238/1/5 236/1/5 235/1/5
f 239/1/5 238/1/5 237/1/5
f 240/1/5 236/1/5 238/1/5
f 240/1/5 238/1/5 239/1/5
f 243/4/5 242/4/5 241/4/5
f 244/4/5 242/4/5 243/4/5
f 247/4/5 246/4/5 245/4/5
f 248/4/5 246/4/5 247/4/5
f 251/3/5 250/3/5 249/3/5
f 252/3/5 250/3/5 251/3/5
f 255/3/5 254/3/5 253/3/5
f 256/3/5 254/3/5 255/3/5
f 257/3/5 251/3/5 249/3/5
f 258/3/5 250/3/5 252/3/5
f 259/3/5 257/3/5 249/3/5
f 259/3/5 258/3/5 257/3/5
f 260/3/5 250/3/5 258/3/5
f 260/3/5 258/3/5 259/3/5
f 261/3/6 262/3/6 263/3/6
f 263/3/6 262/3/6 264/3/6
f 265/3/6 266/3/6 267/3/6
f 267/3/6 266/3/6 268/3/6
f 261/3/6 263/3/6 269/3/6
f 264/3/6 262/3/6 270/3/6
f 261/3/6 269/3/6 271/3/6
f 269/3/6 270/3/6 271/3/6
f 270/3/6 262/3/6 272/3/6
f 271/3/6 270/3/6 272/3/6
f 273/4/6 274/4/6 275/4/6
f 275/4/6 274/4/6 276/4/6
f 277/4/6 278/4/6 279/4/6
f 279/4/6 278/4/6 280/4/6
f 281/1/6 282/1/6 283/1/6
f 283/1/6 282/1/6 284/1/6
f 281/1/6 283/1/6 285/1/6
f 285/1/6 283/1/6 286/1/6
f 287/1/6 288/1/6 290/1/6
f 289/1/6 290/1/6 291/1/6
f 290/1/6 288/1/6 292/1/6
f 291/1/6 290/1/6 292/1/6
f 293/5/6 294/5/6 297/5/6
f 297/5/6 294/5/6 298/5/6
f 295/4/6 296/4/6 299/4/6
f 299/4/6 296/4/6 300/4/6
f 301/4/6 302/4/6 305/4/6
f 305/4/6 302/4/6 306/4/6
f 303/5/6 304/5/6 307/5/6
f 307/5/6 304/5/6 308/5/6
f 309/3/6 310/3/6 311/3/6
f 311/3/6 310/3/6 312/3/6
