# MagicaVoxel @ Ephtracy

# group
o 

# material
mtllib Pump.mtl
usemtl palette

# normals
vn -1 0 0
vn 1 0 0
vn 0 0 1
vn 0 0 -1
vn 0 -1 0
vn 0 1 0

# texcoords
vt 0.927734 0.5
vt 0.990234 0.5
vt 0.994141 0.5

# verts
v -2 0 2
v -2 0 -2
v -2 4 2
v -2 4 -2
v -0.9 0.8 0.5
v -0.9 0.8 -0.8
v -0.9 3.3 0.5
v -0.9 3.3 -0.8
v 1.1 0.8 1.9
v 1.1 0.8 -2
v 1.1 3.3 1.9
v 1.1 3.3 -2
v -1.6 0.8 1.9
v -1.6 0.8 -2
v -1.6 3.3 1.9
v -1.6 3.3 -2
v 0.2 0.8 0.5
v 0.2 0.8 -0.8
v 0.2 3.3 0.5
v 0.2 3.3 -0.8
v 2 0 2
v 2 0 -2
v 2 4 2
v 2 4 -2
v -2 0 2
v -2 4 2
v 2 0 2
v 2 4 2
v -0.9 0.8 0.5
v -0.9 3.3 0.5
v 0.2 0.8 0.5
v 0.2 3.3 0.5
v -1.6 0.8 1.9
v -1.6 3.3 1.9
v 1.1 0.8 1.9
v 1.1 3.3 1.9
v -0.9 0.8 -0.8
v -0.9 3.3 -0.8
v 0.2 0.8 -0.8
v 0.2 3.3 -0.8
v -2 0 -2
v -2 4 -2
v -1.6 0.7 -2
v -1.6 0.8 -2
v -1.6 3.3 -2
v -1.6 3.4 -2
v -0.6 3.4 -2
v -0.6 4 -2
v -0.5 3.4 -2
v -0.5 4 -2
v -0.0999999 3.4 -2
v -0.0999999 3.8 -2
v -0.0999999 3.9 -2
v -0.0999999 4 -2
v 2.38419e-007 3.4 -2
v 2.38419e-007 3.8 -2
v 2.38419e-007 3.9 -2
v 2.38419e-007 4 -2
v 0.4 3.5 -2
v 0.4 3.9 -2
v 0.5 3.4 -2
v 0.5 3.5 -2
v 0.5 3.9 -2
v 0.5 4 -2
v 0.8 3.4 -2
v 0.8 3.5 -2
v 0.8 3.9 -2
v 0.8 4 -2
v 0.9 3.5 -2
v 0.9 3.9 -2
v 1.1 0.7 -2
v 1.1 0.8 -2
v 1.1 3.3 -2
v 1.1 3.4 -2
v 2 0 -2
v 2 4 -2
v -2 0 2
v 2 0 2
v -2 0 -2
v 2 0 -2
v -1.6 3.3 1.9
v 1.1 3.3 1.9
v -0.9 3.3 0.5
v 0.2 3.3 0.5
v -0.9 3.3 -0.8
v 0.2 3.3 -0.8
v -1.6 3.3 -2
v 1.1 3.3 -2
v -1.6 0.8 1.9
v 1.1 0.8 1.9
v -0.9 0.8 0.5
v 0.2 0.8 0.5
v -0.9 0.8 -0.8
v 0.2 0.8 -0.8
v -1.6 0.8 -2
v 1.1 0.8 -2
v -2 4 2
v 2 4 2
v -0.6 4 -1.9
v -0.5 4 -1.9
v -0.0999999 4 -1.9
v 2.38419e-007 4 -1.9
v 0.5 4 -1.9
v 0.8 4 -1.9
v -2 4 -2
v -0.6 4 -2
v -0.5 4 -2
v -0.0999999 4 -2
v 2.38419e-007 4 -2
v 0.5 4 -2
v 0.8 4 -2
v 2 4 -2

# faces
f 3/2/1 2/2/1 1/2/1
f 4/2/1 2/2/1 3/2/1
f 7/3/1 6/3/1 5/3/1
f 8/3/1 6/3/1 7/3/1
f 11/2/1 10/2/1 9/2/1
f 12/2/1 10/2/1 11/2/1
f 13/2/2 14/2/2 15/2/2
f 15/2/2 14/2/2 16/2/2
f 17/3/2 18/3/2 19/3/2
f 19/3/2 18/3/2 20/3/2
f 21/2/2 22/2/2 23/2/2
f 23/2/2 22/2/2 24/2/2
f 27/2/3 26/2/3 25/2/3
f 28/2/3 26/2/3 27/2/3
f 31/3/3 30/3/3 29/3/3
f 32/3/3 30/3/3 31/3/3
f 33/2/4 34/2/4 35/2/4
f 35/2/4 34/2/4 36/2/4
f 37/3/4 38/3/4 39/3/4
f 39/3/4 38/3/4 40/3/4
f 41/2/4 42/2/4 43/2/4
f 43/2/4 42/2/4 44/2/4
f 44/2/4 42/2/4 45/2/4
f 45/2/4 42/2/4 46/2/4
f 46/2/4 42/2/4 47/2/4
f 45/1/4 46/1/4 47/1/4
f 47/2/4 42/2/4 48/2/4
f 45/1/4 47/1/4 49/1/4
f 47/3/4 48/3/4 49/3/4
f 49/3/4 48/3/4 50/3/4
f 45/1/4 49/1/4 51/1/4
f 49/2/4 50/2/4 51/2/4
f 51/2/4 50/2/4 52/2/4
f 52/2/4 50/2/4 53/2/4
f 53/2/4 50/2/4 54/2/4
f 45/1/4 51/1/4 55/1/4
f 51/3/4 52/3/4 55/3/4
f 52/2/4 53/2/4 56/2/4
f 55/3/4 52/3/4 56/3/4
f 53/3/4 54/3/4 57/3/4
f 56/2/4 53/2/4 57/2/4
f 57/3/4 54/3/4 58/3/4
f 55/2/4 56/2/4 59/2/4
f 56/2/4 57/2/4 59/2/4
f 57/2/4 58/2/4 59/2/4
f 59/2/4 58/2/4 60/2/4
f 45/1/4 55/1/4 61/1/4
f 55/2/4 59/2/4 61/2/4
f 59/3/4 60/3/4 62/3/4
f 61/2/4 59/2/4 62/2/4
f 60/2/4 58/2/4 63/2/4
f 62/3/4 60/3/4 63/3/4
f 63/2/4 58/2/4 64/2/4
f 61/3/4 62/3/4 65/3/4
f 45/1/4 61/1/4 65/1/4
f 62/2/4 63/2/4 66/2/4
f 65/3/4 62/3/4 66/3/4
f 63/3/4 64/3/4 67/3/4
f 66/2/4 63/2/4 67/2/4
f 67/3/4 64/3/4 68/3/4
f 65/2/4 66/2/4 69/2/4
f 66/3/4 67/3/4 69/3/4
f 67/2/4 68/2/4 70/2/4
f 69/3/4 67/3/4 70/3/4
f 41/2/4 43/2/4 71/2/4
f 43/1/4 44/1/4 71/1/4
f 71/1/4 44/1/4 72/1/4
f 45/1/4 65/1/4 73/1/4
f 69/2/4 70/2/4 74/2/4
f 65/2/4 69/2/4 74/2/4
f 73/1/4 65/1/4 74/1/4
f 72/2/4 73/2/4 75/2/4
f 71/2/4 72/2/4 75/2/4
f 73/2/4 74/2/4 75/2/4
f 41/2/4 71/2/4 75/2/4
f 70/2/4 68/2/4 76/2/4
f 75/2/4 74/2/4 76/2/4
f 74/2/4 70/2/4 76/2/4
f 79/2/5 78/2/5 77/2/5
f 80/2/5 78/2/5 79/2/5
f 83/1/5 82/1/5 81/1/5
f 84/1/5 82/1/5 83/1/5
f 85/1/5 83/1/5 81/1/5
f 86/1/5 82/1/5 84/1/5
f 87/1/5 85/1/5 81/1/5
f 87/1/5 86/1/5 85/1/5
f 88/1/5 82/1/5 86/1/5
f 88/1/5 86/1/5 87/1/5
f 89/1/6 90/1/6 91/1/6
f 91/1/6 90/1/6 92/1/6
f 89/1/6 91/1/6 93/1/6
f 92/1/6 90/1/6 94/1/6
f 89/1/6 93/1/6 95/1/6
f 93/1/6 94/1/6 95/1/6
f 94/1/6 90/1/6 96/1/6
f 95/1/6 94/1/6 96/1/6
f 97/2/6 98/2/6 99/2/6
f 99/2/6 98/2/6 100/2/6
f 100/2/6 98/2/6 101/2/6
f 101/2/6 98/2/6 102/2/6
f 102/2/6 98/2/6 103/2/6
f 103/2/6 98/2/6 104/2/6
f 97/2/6 99/2/6 105/2/6
f 99/3/6 100/3/6 106/3/6
f 105/2/6 99/2/6 106/2/6
f 100/2/6 101/2/6 107/2/6
f 106/3/6 100/3/6 107/3/6
f 101/3/6 102/3/6 108/3/6
f 107/2/6 101/2/6 108/2/6
f 102/2/6 103/2/6 109/2/6
f 108/3/6 102/3/6 109/3/6
f 103/3/6 104/3/6 110/3/6
f 109/2/6 103/2/6 110/2/6
f 104/2/6 98/2/6 111/2/6
f 110/3/6 104/3/6 111/3/6
f 111/2/6 98/2/6 112/2/6
