# MagicaVoxel @ Ephtracy

# group
o 

# material
mtllib Scrap Metal.mtl
usemtl palette

# normals
vn -1 0 0
vn 1 0 0
vn 0 0 1
vn 0 0 -1
vn 0 -1 0
vn 0 1 0

# texcoords
vt 0.279297 0.5
vt 0.931641 0.5
vt 0.990234 0.5

# verts
v -1.4 0 -0.1
v -1.4 0 -0.2
v -1.4 0.1 -0.1
v -1.4 0.1 -0.2
v -1.3 0 0.3
v -1.3 0 0.2
v -1.3 0 0
v -1.3 0 -0.1
v -1.3 0 -0.2
v -1.3 0 -0.3
v -1.3 0.1 0.3
v -1.3 0.1 0.2
v -1.3 0.1 0
v -1.3 0.1 -0.1
v -1.3 0.1 -0.2
v -1.3 0.1 -0.3
v -1.2 0 0.4
v -1.2 0 0.3
v -1.2 0 0.2
v -1.2 0 0.1
v -1.2 0 0
v -1.2 0 -0.3
v -1.2 0 -0.4
v -1.2 0.1 0.4
v -1.2 0.1 0.3
v -1.2 0.1 0.2
v -1.2 0.1 0.1
v -1.2 0.1 0
v -1.2 0.1 -0.3
v -1.2 0.1 -0.4
v -1.1 0 0.5
v -1.1 0 0.4
v -1.1 0 -0.4
v -1.1 0 -0.5
v -1.1 0.1 0.5
v -1.1 0.1 0.4
v -1.1 0.1 0.2
v -1.1 0.1 0.1
v -1.1 0.1 0
v -1.1 0.1 -0.4
v -1.1 0.1 -0.5
v -1.1 0.2 0.2
v -1.1 0.2 0
v -1 0 0.6
v -1 0 0.5
v -1 0 -0.5
v -1 0 -0.6
v -1 0.1 0.6
v -1 0.1 0.5
v -1 0.1 0.3
v -1 0.1 0.2
v -1 0.1 0
v -1 0.1 -0.1
v -1 0.1 -0.5
v -1 0.1 -0.6
v -1 0.2 0.3
v -1 0.2 0.2
v -1 0.2 0
v -1 0.2 -0.1
v -0.9 0 0.7
v -0.9 0 0.6
v -0.9 0 -0.6
v -0.9 0 -0.7
v -0.9 0.1 0.7
v -0.9 0.1 0.6
v -0.9 0.1 0.4
v -0.9 0.1 0.3
v -0.9 0.1 -0.1
v -0.9 0.1 -0.2
v -0.9 0.1 -0.6
v -0.9 0.1 -0.7
v -0.9 0.2 0.4
v -0.9 0.2 0.3
v -0.9 0.2 -0.1
v -0.9 0.2 -0.2
v -0.8 0 0.8
v -0.8 0 0.7
v -0.8 0.1 0.8
v -0.8 0.1 0.7
v -0.8 0.1 0.5
v -0.8 0.1 0.4
v -0.8 0.1 -0.2
v -0.8 0.1 -0.3
v -0.8 0.2 0.5
v -0.8 0.2 0.4
v -0.8 0.2 -0.2
v -0.8 0.2 -0.3
v -0.7 0.1 0.6
v -0.7 0.1 0.5
v -0.7 0.1 -0.3
v -0.7 0.1 -0.4
v -0.7 0.2 0.6
v -0.7 0.2 0.5
v -0.7 0.2 -0.3
v -0.7 0.2 -0.4
v -0.5 0 -0.5
v -0.5 0 -0.6
v -0.5 0.1 -0.5
v -0.5 0.1 -0.6
v -0.8 0 -0.6
v -0.8 0 -0.7
v -0.8 0.1 -0.6
v -0.8 0.1 -0.7
v -0.7 0 0.8
v -0.7 0 0.7
v -0.7 0 -0.5
v -0.7 0 -0.6
v -0.7 0.1 0.8
v -0.7 0.1 0.7
v -0.7 0.1 -0.5
v -0.7 0.1 -0.6
v -0.5 0 0.7
v -0.5 0 0.6
v -0.5 0.1 0.7
v -0.5 0.1 0.6
v -0.5 0.1 0.5
v -0.5 0.1 -0.3
v -0.5 0.1 -0.4
v -0.5 0.2 0.6
v -0.5 0.2 0.5
v -0.5 0.2 -0.3
v -0.5 0.2 -0.4
v -0.4 0 0.6
v -0.4 0 0.5
v -0.4 0 -0.5
v -0.4 0 -0.6
v -0.4 0.1 0.6
v -0.4 0.1 0.5
v -0.4 0.1 0.4
v -0.4 0.1 -0.2
v -0.4 0.1 -0.3
v -0.4 0.1 -0.5
v -0.4 0.1 -0.6
v -0.4 0.2 0.5
v -0.4 0.2 0.4
v -0.4 0.2 -0.2
v -0.4 0.2 -0.3
v -0.3 0 0.5
v -0.3 0 0.4
v -0.3 0 -0.4
v -0.3 0 -0.5
v -0.3 0.1 0.5
v -0.3 0.1 0.4
v -0.3 0.1 0.3
v -0.3 0.1 -0.1
v -0.3 0.1 -0.2
v -0.3 0.1 -0.4
v -0.3 0.1 -0.5
v -0.3 0.2 0.4
v -0.3 0.2 0.3
v -0.3 0.2 -0.1
v -0.3 0.2 -0.2
v -0.2 0 0.4
v -0.2 0 0.3
v -0.2 0 -0.3
v -0.2 0 -0.4
v -0.2 0.1 0.4
v -0.2 0.1 0.3
v -0.2 0.1 0.2
v -0.2 0.1 0
v -0.2 0.1 -0.1
v -0.2 0.1 -0.3
v -0.2 0.1 -0.4
v -0.2 0.2 0.3
v -0.2 0.2 0.2
v -0.2 0.2 0
v -0.2 0.2 -0.1
v -0.1 0 0.3
v -0.1 0 0.2
v -0.1 0 -0.2
v -0.1 0 -0.3
v -0.1 0.1 0.3
v -0.1 0.1 0.2
v -0.1 0.1 0.1
v -0.1 0.1 0
v -0.1 0.1 -0.2
v -0.1 0.1 -0.3
v -0.1 0.2 0.2
v -0.1 0.2 0
v 0 0 0.2
v 0 0 0.1
v 0 0 0
v 0 0 -0.1
v 0 0 -0.2
v 0 0.1 0.2
v 0 0.1 0.1
v 0 0.1 0
v 0 0.1 -0.1
v 0 0.1 -0.2
v 0.1 0 0
v 0.1 0 -0.1
v 0.1 0.1 0
v 0.1 0.1 -0.1
v -0.8 0 0.8
v -0.8 0.1 0.8
v -0.7 0 0.8
v -0.7 0.1 0.8
v -0.9 0 0.7
v -0.9 0.1 0.7
v -0.8 0 0.7
v -0.8 0.1 0.7
v -0.7 0 0.7
v -0.7 0.1 0.7
v -0.6 0 0.7
v -0.6 0.1 0.7
v -0.5 0 0.7
v -0.5 0.1 0.7
v -1 0 0.6
v -1 0.1 0.6
v -0.9 0 0.6
v -0.9 0.1 0.6
v -0.7 0.1 0.6
v -0.7 0.2 0.6
v -0.6 0.1 0.6
v -0.5 0 0.6
v -0.5 0.1 0.6
v -0.5 0.2 0.6
v -0.4 0 0.6
v -0.4 0.1 0.6
v -1.1 0 0.5
v -1.1 0.1 0.5
v -1 0 0.5
v -1 0.1 0.5
v -0.8 0.1 0.5
v -0.8 0.2 0.5
v -0.7 0.1 0.5
v -0.7 0.2 0.5
v -0.5 0.1 0.5
v -0.5 0.2 0.5
v -0.4 0 0.5
v -0.4 0.1 0.5
v -0.4 0.2 0.5
v -0.3 0 0.5
v -0.3 0.1 0.5
v -1.2 0 0.4
v -1.2 0.1 0.4
v -1.1 0 0.4
v -1.1 0.1 0.4
v -0.9 0.1 0.4
v -0.9 0.2 0.4
v -0.8 0.1 0.4
v -0.8 0.2 0.4
v -0.4 0.1 0.4
v -0.4 0.2 0.4
v -0.3 0 0.4
v -0.3 0.1 0.4
v -0.3 0.2 0.4
v -0.2 0 0.4
v -0.2 0.1 0.4
v -1.3 0 0.3
v -1.3 0.1 0.3
v -1.2 0 0.3
v -1.2 0.1 0.3
v -1 0.1 0.3
v -1 0.2 0.3
v -0.9 0.1 0.3
v -0.9 0.2 0.3
v -0.3 0.1 0.3
v -0.3 0.2 0.3
v -0.2 0 0.3
v -0.2 0.1 0.3
v -0.2 0.2 0.3
v -0.1 0 0.3
v -0.1 0.1 0.3
v -1.1 0.1 0.2
v -1.1 0.2 0.2
v -1 0.1 0.2
v -1 0.2 0.2
v -0.2 0.1 0.2
v -0.2 0.2 0.2
v -0.1 0 0.2
v -0.1 0.1 0.2
v -0.1 0.2 0.2
v 0 0 0.2
v 0 0.1 0.2
v -1.3 0 0
v -1.3 0.1 0
v -1.2 0 0
v -1.2 0.1 0
v 0 0 0
v 0 0.1 0
v 0.1 0 0
v 0.1 0.1 0
v -1.4 0 -0.1
v -1.4 0.1 -0.1
v -1.3 0 -0.1
v -1.3 0.1 -0.1
v -1.3 0 0.2
v -1.3 0.1 0.2
v -1.2 0 0.2
v -1.2 0.1 0.2
v -1.1 0.1 0
v -1.1 0.2 0
v -1 0.1 0
v -1 0.2 0
v -0.2 0.1 0
v -0.2 0.2 0
v -0.1 0.1 0
v -0.1 0.2 0
v -1 0.1 -0.1
v -1 0.2 -0.1
v -0.9 0.1 -0.1
v -0.9 0.2 -0.1
v -0.3 0.1 -0.1
v -0.3 0.2 -0.1
v -0.2 0.1 -0.1
v -0.2 0.2 -0.1
v 0 0 -0.1
v 0 0.1 -0.1
v 0.1 0 -0.1
v 0.1 0.1 -0.1
v -1.4 0 -0.2
v -1.4 0.1 -0.2
v -1.3 0 -0.2
v -1.3 0.1 -0.2
v -0.9 0.1 -0.2
v -0.9 0.2 -0.2
v -0.8 0.1 -0.2
v -0.8 0.2 -0.2
v -0.4 0.1 -0.2
v -0.4 0.2 -0.2
v -0.3 0.1 -0.2
v -0.3 0.2 -0.2
v -0.1 0 -0.2
v -0.1 0.1 -0.2
v 0 0 -0.2
v 0 0.1 -0.2
v -1.3 0 -0.3
v -1.3 0.1 -0.3
v -1.2 0 -0.3
v -1.2 0.1 -0.3
v -0.8 0.1 -0.3
v -0.8 0.2 -0.3
v -0.7 0.1 -0.3
v -0.7 0.2 -0.3
v -0.5 0.1 -0.3
v -0.5 0.2 -0.3
v -0.4 0.1 -0.3
v -0.4 0.2 -0.3
v -0.2 0 -0.3
v -0.2 0.1 -0.3
v -0.1 0 -0.3
v -0.1 0.1 -0.3
v -1.2 0 -0.4
v -1.2 0.1 -0.4
v -1.1 0 -0.4
v -1.1 0.1 -0.4
v -0.7 0.1 -0.4
v -0.7 0.2 -0.4
v -0.6 0.1 -0.4
v -0.5 0.1 -0.4
v -0.5 0.2 -0.4
v -0.3 0 -0.4
v -0.3 0.1 -0.4
v -0.2 0 -0.4
v -0.2 0.1 -0.4
v -1.1 0 -0.5
v -1.1 0.1 -0.5
v -1 0 -0.5
v -1 0.1 -0.5
v -0.7 0 -0.5
v -0.7 0.1 -0.5
v -0.6 0 -0.5
v -0.6 0.1 -0.5
v -0.5 0 -0.5
v -0.5 0.1 -0.5
v -0.4 0 -0.5
v -0.4 0.1 -0.5
v -0.3 0 -0.5
v -0.3 0.1 -0.5
v -1 0 -0.6
v -1 0.1 -0.6
v -0.9 0 -0.6
v -0.9 0.1 -0.6
v -0.8 0 -0.6
v -0.8 0.1 -0.6
v -0.7 0 -0.6
v -0.7 0.1 -0.6
v -0.5 0 -0.6
v -0.5 0.1 -0.6
v -0.4 0 -0.6
v -0.4 0.1 -0.6
v -0.9 0 -0.7
v -0.9 0.1 -0.7
v -0.8 0 -0.7
v -0.8 0.1 -0.7
v -0.8 0 0.8
v -0.7 0 0.8
v -0.9 0 0.7
v -0.8 0 0.7
v -0.7 0 0.7
v -0.6 0 0.7
v -0.5 0 0.7
v -1 0 0.6
v -0.9 0 0.6
v -0.8 0 0.6
v -0.6 0 0.6
v -0.5 0 0.6
v -0.4 0 0.6
v -1.1 0 0.5
v -1 0 0.5
v -0.9 0 0.5
v -0.8 0 0.5
v -0.5 0 0.5
v -0.4 0 0.5
v -0.3 0 0.5
v -1.2 0 0.4
v -1.1 0 0.4
v -1 0 0.4
v -0.4 0 0.4
v -0.3 0 0.4
v -0.2 0 0.4
v -1.3 0 0.3
v -1.2 0 0.3
v -1.1 0 0.3
v -1 0 0.3
v -0.3 0 0.3
v -0.2 0 0.3
v -0.1 0 0.3
v -1.3 0 0.2
v -1.2 0 0.2
v -0.2 0 0.2
v -0.1 0 0.2
v 0 0 0.2
v -1.2 0 0.1
v -1.1 0 0.1
v -0.1 0 0.1
v 0 0 0.1
v -1.3 0 0
v -1.2 0 0
v -1.1 0 0
v -1 0 0
v 0 0 0
v 0.1 0 0
v -1.4 0 -0.1
v -1.3 0 -0.1
v -1 0 -0.1
v -0.9 0 -0.1
v 0 0 -0.1
v 0.1 0 -0.1
v -1.4 0 -0.2
v -1.3 0 -0.2
v -0.9 0 -0.2
v -0.8 0 -0.2
v -0.1 0 -0.2
v 0 0 -0.2
v -1.3 0 -0.3
v -1.2 0 -0.3
v -0.8 0 -0.3
v -0.7 0 -0.3
v -0.4 0 -0.3
v -0.3 0 -0.3
v -0.2 0 -0.3
v -0.1 0 -0.3
v -1.2 0 -0.4
v -1.1 0 -0.4
v -0.7 0 -0.4
v -0.6 0 -0.4
v -0.4 0 -0.4
v -0.3 0 -0.4
v -0.2 0 -0.4
v -1.1 0 -0.5
v -1 0 -0.5
v -0.7 0 -0.5
v -0.6 0 -0.5
v -0.5 0 -0.5
v -0.4 0 -0.5
v -0.3 0 -0.5
v -1 0 -0.6
v -0.9 0 -0.6
v -0.8 0 -0.6
v -0.7 0 -0.6
v -0.5 0 -0.6
v -0.4 0 -0.6
v -0.9 0 -0.7
v -0.8 0 -0.7
v -0.8 0.1 0.8
v -0.7 0.1 0.8
v -0.9 0.1 0.7
v -0.8 0.1 0.7
v -0.7 0.1 0.7
v -0.6 0.1 0.7
v -0.5 0.1 0.7
v -1 0.1 0.6
v -0.9 0.1 0.6
v -0.8 0.1 0.6
v -0.7 0.1 0.6
v -0.6 0.1 0.6
v -0.5 0.1 0.6
v -0.4 0.1 0.6
v -1.1 0.1 0.5
v -1 0.1 0.5
v -0.9 0.1 0.5
v -0.8 0.1 0.5
v -0.7 0.1 0.5
v -0.5 0.1 0.5
v -0.4 0.1 0.5
v -0.3 0.1 0.5
v -1.2 0.1 0.4
v -1.1 0.1 0.4
v -1 0.1 0.4
v -0.9 0.1 0.4
v -0.8 0.1 0.4
v -0.4 0.1 0.4
v -0.3 0.1 0.4
v -0.2 0.1 0.4
v -1.3 0.1 0.3
v -1.2 0.1 0.3
v -1.1 0.1 0.3
v -1 0.1 0.3
v -0.9 0.1 0.3
v -0.3 0.1 0.3
v -0.2 0.1 0.3
v -0.1 0.1 0.3
v -1.3 0.1 0.2
v -1.2 0.1 0.2
v -1.1 0.1 0.2
v -1 0.1 0.2
v -0.2 0.1 0.2
v -0.1 0.1 0.2
v 0 0.1 0.2
v -1.2 0.1 0.1
v -1.1 0.1 0.1
v -0.1 0.1 0.1
v 0 0.1 0.1
v -1.3 0.1 0
v -1.2 0.1 0
v -1.1 0.1 0
v -1 0.1 0
v -0.2 0.1 0
v -0.1 0.1 0
v 0 0.1 0
v 0.1 0.1 0
v -1.4 0.1 -0.1
v -1.3 0.1 -0.1
v -1 0.1 -0.1
v -0.9 0.1 -0.1
v -0.3 0.1 -0.1
v -0.2 0.1 -0.1
v 0 0.1 -0.1
v 0.1 0.1 -0.1
v -1.4 0.1 -0.2
v -1.3 0.1 -0.2
v -0.9 0.1 -0.2
v -0.8 0.1 -0.2
v -0.4 0.1 -0.2
v -0.3 0.1 -0.2
v -0.1 0.1 -0.2
v 0 0.1 -0.2
v -1.3 0.1 -0.3
v -1.2 0.1 -0.3
v -0.8 0.1 -0.3
v -0.7 0.1 -0.3
v -0.5 0.1 -0.3
v -0.4 0.1 -0.3
v -0.3 0.1 -0.3
v -0.2 0.1 -0.3
v -0.1 0.1 -0.3
v -1.2 0.1 -0.4
v -1.1 0.1 -0.4
v -0.7 0.1 -0.4
v -0.6 0.1 -0.4
v -0.5 0.1 -0.4
v -0.4 0.1 -0.4
v -0.3 0.1 -0.4
v -0.2 0.1 -0.4
v -1.1 0.1 -0.5
v -1 0.1 -0.5
v -0.7 0.1 -0.5
v -0.6 0.1 -0.5
v -0.5 0.1 -0.5
v -0.4 0.1 -0.5
v -0.3 0.1 -0.5
v -1 0.1 -0.6
v -0.9 0.1 -0.6
v -0.8 0.1 -0.6
v -0.7 0.1 -0.6
v -0.5 0.1 -0.6
v -0.4 0.1 -0.6
v -0.9 0.1 -0.7
v -0.8 0.1 -0.7
v -0.7 0.2 0.6
v -0.5 0.2 0.6
v -0.8 0.2 0.5
v -0.7 0.2 0.5
v -0.5 0.2 0.5
v -0.4 0.2 0.5
v -0.9 0.2 0.4
v -0.8 0.2 0.4
v -0.4 0.2 0.4
v -0.3 0.2 0.4
v -1 0.2 0.3
v -0.9 0.2 0.3
v -0.7 0.2 0.3
v -0.6 0.2 0.3
v -0.3 0.2 0.3
v -0.2 0.2 0.3
v -1.1 0.2 0.2
v -1 0.2 0.2
v -0.7 0.2 0.2
v -0.6 0.2 0.2
v -0.2 0.2 0.2
v -0.1 0.2 0.2
v -1.1 0.2 0
v -1 0.2 0
v -0.9 0.2 0
v -0.4 0.2 0
v -0.3 0.2 0
v -0.2 0.2 0
v -0.1 0.2 0
v -1 0.2 -0.1
v -0.9 0.2 -0.1
v -0.4 0.2 -0.1
v -0.3 0.2 -0.1
v -0.2 0.2 -0.1
v -0.9 0.2 -0.2
v -0.8 0.2 -0.2
v -0.4 0.2 -0.2
v -0.3 0.2 -0.2
v -0.8 0.2 -0.3
v -0.7 0.2 -0.3
v -0.5 0.2 -0.3
v -0.4 0.2 -0.3
v -0.7 0.2 -0.4
v -0.5 0.2 -0.4

# faces
f 3/3/1 2/3/1 1/3/1
f 4/3/1 2/3/1 3/3/1
f 11/2/1 6/2/1 5/2/1
f 12/2/1 6/2/1 11/2/1
f 13/3/1 8/3/1 7/3/1
f 14/3/1 8/3/1 13/3/1
f 15/3/1 10/3/1 9/3/1
f 16/3/1 10/3/1 15/3/1
f 24/2/1 18/2/1 17/2/1
f 25/2/1 18/2/1 24/2/1
f 26/2/1 20/2/1 19/2/1
f 27/3/1 21/3/1 20/3/1
f 27/2/1 20/2/1 26/2/1
f 28/3/1 21/3/1 27/3/1
f 29/3/1 23/3/1 22/3/1
f 30/3/1 23/3/1 29/3/1
f 35/2/1 32/2/1 31/2/1
f 36/2/1 32/2/1 35/2/1
f 40/3/1 34/3/1 33/3/1
f 41/3/1 34/3/1 40/3/1
f 42/3/1 39/3/1 38/3/1
f 42/3/1 38/3/1 37/3/1
f 43/3/1 39/3/1 42/3/1
f 48/2/1 45/2/1 44/2/1
f 49/2/1 45/2/1 48/2/1
f 54/3/1 47/3/1 46/3/1
f 55/3/1 47/3/1 54/3/1
f 56/3/1 51/3/1 50/3/1
f 57/3/1 51/3/1 56/3/1
f 58/1/1 53/1/1 52/1/1
f 59/1/1 53/1/1 58/1/1
f 64/2/1 61/2/1 60/2/1
f 65/2/1 61/2/1 64/2/1
f 70/3/1 63/3/1 62/3/1
f 71/3/1 63/3/1 70/3/1
f 72/3/1 67/3/1 66/3/1
f 73/3/1 67/3/1 72/3/1
f 74/3/1 69/3/1 68/3/1
f 75/3/1 69/3/1 74/3/1
f 78/2/1 77/2/1 76/2/1
f 79/2/1 77/2/1 78/2/1
f 84/3/1 81/3/1 80/3/1
f 85/3/1 81/3/1 84/3/1
f 86/3/1 83/3/1 82/3/1
f 87/3/1 83/3/1 86/3/1
f 92/3/1 89/3/1 88/3/1
f 93/3/1 89/3/1 92/3/1
f 94/3/1 91/3/1 90/3/1
f 95/3/1 91/3/1 94/3/1
f 98/2/1 97/2/1 96/2/1
f 99/2/1 97/2/1 98/2/1
f 100/3/2 101/3/2 102/3/2
f 102/3/2 101/3/2 103/3/2
f 104/2/2 105/2/2 108/2/2
f 108/2/2 105/2/2 109/2/2
f 106/3/2 107/3/2 110/3/2
f 110/3/2 107/3/2 111/3/2
f 112/3/2 113/3/2 114/3/2
f 114/3/2 113/3/2 115/3/2
f 115/3/2 116/3/2 119/3/2
f 119/3/2 116/3/2 120/3/2
f 117/3/2 118/3/2 121/3/2
f 121/3/2 118/3/2 122/3/2
f 123/3/2 124/3/2 127/3/2
f 127/3/2 124/3/2 128/3/2
f 125/2/2 126/2/2 132/2/2
f 132/2/2 126/2/2 133/2/2
f 128/3/2 129/3/2 134/3/2
f 134/3/2 129/3/2 135/3/2
f 130/3/2 131/3/2 136/3/2
f 136/3/2 131/3/2 137/3/2
f 138/3/2 139/3/2 142/3/2
f 142/3/2 139/3/2 143/3/2
f 140/2/2 141/2/2 147/2/2
f 147/2/2 141/2/2 148/2/2
f 143/3/2 144/3/2 149/3/2
f 149/3/2 144/3/2 150/3/2
f 145/3/2 146/3/2 151/3/2
f 151/3/2 146/3/2 152/3/2
f 153/3/2 154/3/2 157/3/2
f 157/3/2 154/3/2 158/3/2
f 155/2/2 156/2/2 162/2/2
f 162/2/2 156/2/2 163/2/2
f 158/3/2 159/3/2 164/3/2
f 164/3/2 159/3/2 165/3/2
f 160/3/2 161/3/2 166/3/2
f 166/3/2 161/3/2 167/3/2
f 168/3/2 169/3/2 172/3/2
f 172/3/2 169/3/2 173/3/2
f 170/2/2 171/2/2 176/2/2
f 176/2/2 171/2/2 177/2/2
f 174/3/2 175/3/2 178/3/2
f 173/3/2 174/3/2 178/3/2
f 178/3/2 175/3/2 179/3/2
f 180/3/2 181/3/2 185/3/2
f 181/2/2 182/2/2 186/2/2
f 185/3/2 181/3/2 186/3/2
f 186/2/2 182/2/2 187/2/2
f 183/2/2 184/2/2 188/2/2
f 188/2/2 184/2/2 189/2/2
f 190/2/2 191/2/2 192/2/2
f 192/2/2 191/2/2 193/2/2
f 196/2/3 195/2/3 194/2/3
f 197/2/3 195/2/3 196/2/3
f 200/2/3 199/2/3 198/2/3
f 201/2/3 199/2/3 200/2/3
f 204/2/3 203/2/3 202/2/3
f 205/2/3 203/2/3 204/2/3
f 206/3/3 205/3/3 204/3/3
f 207/3/3 205/3/3 206/3/3
f 210/2/3 209/2/3 208/2/3
f 211/2/3 209/2/3 210/2/3
f 214/3/3 213/3/3 212/3/3
f 216/3/3 213/3/3 214/3/3
f 217/3/3 213/3/3 216/3/3
f 218/3/3 216/3/3 215/3/3
f 219/3/3 216/3/3 218/3/3
f 222/2/3 221/2/3 220/2/3
f 223/2/3 221/2/3 222/2/3
f 226/3/3 225/3/3 224/3/3
f 227/3/3 225/3/3 226/3/3
f 231/3/3 229/3/3 228/3/3
f 232/3/3 229/3/3 231/3/3
f 233/3/3 231/3/3 230/3/3
f 234/3/3 231/3/3 233/3/3
f 237/2/3 236/2/3 235/2/3
f 238/2/3 236/2/3 237/2/3
f 241/3/3 240/3/3 239/3/3
f 242/3/3 240/3/3 241/3/3
f 246/3/3 244/3/3 243/3/3
f 247/3/3 244/3/3 246/3/3
f 248/3/3 246/3/3 245/3/3
f 249/3/3 246/3/3 248/3/3
f 252/2/3 251/2/3 250/2/3
f 253/2/3 251/2/3 252/2/3
f 256/3/3 255/3/3 254/3/3
f 257/3/3 255/3/3 256/3/3
f 261/3/3 259/3/3 258/3/3
f 262/3/3 259/3/3 261/3/3
f 263/3/3 261/3/3 260/3/3
f 264/3/3 261/3/3 263/3/3
f 267/3/3 266/3/3 265/3/3
f 268/3/3 266/3/3 267/3/3
f 272/3/3 270/3/3 269/3/3
f 273/3/3 270/3/3 272/3/3
f 274/3/3 272/3/3 271/3/3
f 275/3/3 272/3/3 274/3/3
f 278/3/3 277/3/3 276/3/3
f 279/3/3 277/3/3 278/3/3
f 282/2/3 281/2/3 280/2/3
f 283/2/3 281/2/3 282/2/3
f 286/3/3 285/3/3 284/3/3
f 287/3/3 285/3/3 286/3/3
f 288/2/4 289/2/4 290/2/4
f 290/2/4 289/2/4 291/2/4
f 292/3/4 293/3/4 294/3/4
f 294/3/4 293/3/4 295/3/4
f 296/3/4 297/3/4 298/3/4
f 298/3/4 297/3/4 299/3/4
f 300/1/4 301/1/4 302/1/4
f 302/1/4 301/1/4 303/1/4
f 304/3/4 305/3/4 306/3/4
f 306/3/4 305/3/4 307/3/4
f 308/2/4 309/2/4 310/2/4
f 310/2/4 309/2/4 311/2/4
f 312/3/4 313/3/4 314/3/4
f 314/3/4 313/3/4 315/3/4
f 316/3/4 317/3/4 318/3/4
f 318/3/4 317/3/4 319/3/4
f 320/3/4 321/3/4 322/3/4
f 322/3/4 321/3/4 323/3/4
f 324/2/4 325/2/4 326/2/4
f 326/2/4 325/2/4 327/2/4
f 328/3/4 329/3/4 330/3/4
f 330/3/4 329/3/4 331/3/4
f 332/3/4 333/3/4 334/3/4
f 334/3/4 333/3/4 335/3/4
f 336/3/4 337/3/4 338/3/4
f 338/3/4 337/3/4 339/3/4
f 340/2/4 341/2/4 342/2/4
f 342/2/4 341/2/4 343/2/4
f 344/3/4 345/3/4 346/3/4
f 346/3/4 345/3/4 347/3/4
f 348/3/4 349/3/4 350/3/4
f 350/3/4 349/3/4 351/3/4
f 351/3/4 349/3/4 352/3/4
f 353/2/4 354/2/4 355/2/4
f 355/2/4 354/2/4 356/2/4
f 357/3/4 358/3/4 359/3/4
f 359/3/4 358/3/4 360/3/4
f 361/3/4 362/3/4 363/3/4
f 363/3/4 362/3/4 364/3/4
f 363/2/4 364/2/4 365/2/4
f 365/2/4 364/2/4 366/2/4
f 367/2/4 368/2/4 369/2/4
f 369/2/4 368/2/4 370/2/4
f 371/3/4 372/3/4 373/3/4
f 373/3/4 372/3/4 374/3/4
f 375/3/4 376/3/4 377/3/4
f 377/3/4 376/3/4 378/3/4
f 379/2/4 380/2/4 381/2/4
f 381/2/4 380/2/4 382/2/4
f 383/3/4 384/3/4 385/3/4
f 385/3/4 384/3/4 386/3/4
f 390/2/5 388/2/5 387/2/5
f 391/2/5 388/2/5 390/2/5
f 395/2/5 390/2/5 389/2/5
f 395/2/5 391/2/5 390/2/5
f 395/2/5 392/2/5 391/2/5
f 396/2/5 392/2/5 395/2/5
f 397/3/5 393/3/5 392/3/5
f 397/2/5 392/2/5 396/2/5
f 398/3/5 393/3/5 397/3/5
f 401/2/5 395/2/5 394/2/5
f 402/1/5 396/1/5 395/1/5
f 402/2/5 395/2/5 401/2/5
f 403/2/5 397/2/5 396/2/5
f 403/1/5 396/1/5 402/1/5
f 403/2/5 398/2/5 397/2/5
f 404/3/5 399/3/5 398/3/5
f 404/2/5 398/2/5 403/2/5
f 405/3/5 399/3/5 404/3/5
f 408/2/5 401/2/5 400/2/5
f 408/2/5 403/2/5 402/2/5
f 408/2/5 405/2/5 404/2/5
f 408/2/5 404/2/5 403/2/5
f 408/2/5 402/2/5 401/2/5
f 409/2/5 405/2/5 408/2/5
f 410/3/5 406/3/5 405/3/5
f 410/2/5 405/2/5 409/2/5
f 411/3/5 406/3/5 410/3/5
f 414/2/5 408/2/5 407/2/5
f 415/1/5 409/1/5 408/1/5
f 415/2/5 408/2/5 414/2/5
f 416/2/5 410/2/5 409/2/5
f 416/1/5 409/1/5 415/1/5
f 416/2/5 411/2/5 410/2/5
f 417/3/5 412/3/5 411/3/5
f 417/2/5 411/2/5 416/2/5
f 418/3/5 412/3/5 417/3/5
f 420/2/5 414/2/5 413/2/5
f 420/2/5 416/2/5 415/2/5
f 420/2/5 418/2/5 417/2/5
f 420/2/5 417/2/5 416/2/5
f 420/2/5 415/2/5 414/2/5
f 421/2/5 418/2/5 420/2/5
f 422/3/5 419/3/5 418/3/5
f 422/2/5 418/2/5 421/2/5
f 423/3/5 419/3/5 422/3/5
f 425/2/5 422/2/5 421/2/5
f 425/2/5 423/2/5 422/2/5
f 426/2/5 423/2/5 425/2/5
f 427/3/5 424/3/5 423/3/5
f 427/2/5 423/2/5 426/2/5
f 428/3/5 424/3/5 427/3/5
f 430/3/5 426/3/5 425/3/5
f 431/2/5 427/2/5 426/2/5
f 431/2/5 428/2/5 427/2/5
f 431/3/5 426/3/5 430/3/5
f 432/2/5 428/2/5 431/2/5
f 433/2/5 428/2/5 432/2/5
f 436/3/5 430/3/5 429/3/5
f 436/3/5 431/3/5 430/3/5
f 436/3/5 432/3/5 431/3/5
f 437/2/5 433/2/5 432/2/5
f 437/2/5 434/2/5 433/2/5
f 437/3/5 432/3/5 436/3/5
f 438/2/5 434/2/5 437/2/5
f 439/2/5 434/2/5 438/2/5
f 440/2/5 434/2/5 439/2/5
f 441/3/5 436/3/5 435/3/5
f 441/3/5 437/3/5 436/3/5
f 441/3/5 438/3/5 437/3/5
f 442/3/5 438/3/5 441/3/5
f 443/2/5 439/2/5 438/2/5
f 443/3/5 438/3/5 442/3/5
f 444/2/5 439/2/5 443/2/5
f 445/2/5 439/2/5 444/2/5
f 446/2/5 439/2/5 445/2/5
f 447/3/5 443/3/5 442/3/5
f 447/3/5 444/3/5 443/3/5
f 448/3/5 444/3/5 447/3/5
f 449/2/5 445/2/5 444/2/5
f 449/3/5 444/3/5 448/3/5
f 450/2/5 445/2/5 449/2/5
f 451/2/5 445/2/5 450/2/5
f 452/2/5 445/2/5 451/2/5
f 453/2/5 445/2/5 452/2/5
f 454/2/5 445/2/5 453/2/5
f 455/3/5 449/3/5 448/3/5
f 455/3/5 450/3/5 449/3/5
f 456/3/5 450/3/5 455/3/5
f 457/2/5 451/2/5 450/2/5
f 457/3/5 450/3/5 456/3/5
f 458/2/5 451/2/5 457/2/5
f 459/1/5 452/1/5 451/1/5
f 459/2/5 451/2/5 458/2/5
f 460/2/5 453/2/5 452/2/5
f 460/1/5 452/1/5 459/1/5
f 461/2/5 453/2/5 460/2/5
f 462/3/5 458/3/5 457/3/5
f 462/3/5 457/3/5 456/3/5
f 463/3/5 458/3/5 462/3/5
f 464/3/5 458/3/5 463/3/5
f 465/2/5 459/2/5 458/2/5
f 465/3/5 458/3/5 464/3/5
f 465/2/5 460/2/5 459/2/5
f 466/2/5 460/2/5 465/2/5
f 467/2/5 460/2/5 466/2/5
f 468/2/5 460/2/5 467/2/5
f 469/3/5 464/3/5 463/3/5
f 470/3/5 464/3/5 469/3/5
f 471/3/5 464/3/5 470/3/5
f 472/3/5 464/3/5 471/3/5
f 473/2/5 467/2/5 466/2/5
f 474/2/5 467/2/5 473/2/5
f 475/3/5 471/3/5 470/3/5
f 476/3/5 471/3/5 475/3/5
f 477/2/6 478/2/6 480/2/6
f 480/2/6 478/2/6 481/2/6
f 479/2/6 480/2/6 485/2/6
f 480/2/6 481/2/6 485/2/6
f 481/2/6 482/2/6 485/2/6
f 485/2/6 482/2/6 486/2/6
f 486/2/6 482/2/6 487/2/6
f 482/3/6 483/3/6 488/3/6
f 487/2/6 482/2/6 488/2/6
f 488/3/6 483/3/6 489/3/6
f 484/2/6 485/2/6 492/2/6
f 485/1/6 486/1/6 493/1/6
f 492/2/6 485/2/6 493/2/6
f 486/2/6 487/2/6 494/2/6
f 493/1/6 486/1/6 494/1/6
f 494/2/6 487/2/6 495/2/6
f 489/3/6 490/3/6 496/3/6
f 496/3/6 490/3/6 497/3/6
f 492/2/6 493/2/6 500/2/6
f 491/2/6 492/2/6 500/2/6
f 493/2/6 494/2/6 500/2/6
f 500/2/6 494/2/6 501/2/6
f 501/2/6 494/2/6 502/2/6
f 502/2/6 494/2/6 503/2/6
f 497/3/6 498/3/6 504/3/6
f 504/3/6 498/3/6 505/3/6
f 499/2/6 500/2/6 508/2/6
f 500/1/6 501/1/6 509/1/6
f 508/2/6 500/2/6 509/2/6
f 501/2/6 502/2/6 510/2/6
f 509/1/6 501/1/6 510/1/6
f 510/2/6 502/2/6 511/2/6
f 505/3/6 506/3/6 512/3/6
f 512/3/6 506/3/6 513/3/6
f 507/2/6 508/2/6 515/2/6
f 508/2/6 509/2/6 515/2/6
f 509/2/6 510/2/6 515/2/6
f 515/2/6 510/2/6 516/2/6
f 516/2/6 510/2/6 517/2/6
f 517/2/6 510/2/6 518/2/6
f 513/3/6 514/3/6 519/3/6
f 519/3/6 514/3/6 520/3/6
f 516/2/6 517/2/6 522/2/6
f 522/2/6 517/2/6 523/2/6
f 520/3/6 521/3/6 524/3/6
f 524/3/6 521/3/6 525/3/6
f 522/3/6 523/3/6 527/3/6
f 527/3/6 523/3/6 528/3/6
f 524/2/6 525/2/6 531/2/6
f 531/2/6 525/2/6 532/2/6
f 528/3/6 529/3/6 535/3/6
f 526/3/6 527/3/6 535/3/6
f 527/3/6 528/3/6 535/3/6
f 535/3/6 529/3/6 536/3/6
f 531/2/6 532/2/6 539/2/6
f 532/2/6 533/2/6 539/2/6
f 530/2/6 531/2/6 539/2/6
f 539/2/6 533/2/6 540/2/6
f 540/2/6 533/2/6 541/2/6
f 536/3/6 537/3/6 542/3/6
f 535/3/6 536/3/6 542/3/6
f 534/3/6 535/3/6 542/3/6
f 542/3/6 537/3/6 543/3/6
f 543/3/6 537/3/6 544/3/6
f 539/2/6 540/2/6 547/2/6
f 538/2/6 539/2/6 547/2/6
f 547/2/6 540/2/6 548/2/6
f 548/2/6 540/2/6 549/2/6
f 544/3/6 545/3/6 550/3/6
f 543/3/6 544/3/6 550/3/6
f 550/3/6 545/3/6 551/3/6
f 551/3/6 545/3/6 552/3/6
f 547/2/6 548/2/6 555/2/6
f 546/2/6 547/2/6 555/2/6
f 555/2/6 548/2/6 556/2/6
f 556/2/6 548/2/6 557/2/6
f 557/2/6 548/2/6 558/2/6
f 552/3/6 553/3/6 559/3/6
f 551/3/6 552/3/6 559/3/6
f 559/3/6 553/3/6 560/3/6
f 560/3/6 553/3/6 561/3/6
f 554/2/6 555/2/6 563/2/6
f 555/1/6 556/1/6 564/1/6
f 563/2/6 555/2/6 564/2/6
f 556/2/6 557/2/6 565/2/6
f 564/1/6 556/1/6 565/1/6
f 565/2/6 557/2/6 566/2/6
f 561/3/6 562/3/6 567/3/6
f 560/3/6 561/3/6 567/3/6
f 567/3/6 562/3/6 568/3/6
f 568/3/6 562/3/6 569/3/6
f 563/2/6 564/2/6 570/2/6
f 569/3/6 562/3/6 570/3/6
f 562/2/6 563/2/6 570/2/6
f 564/2/6 565/2/6 570/2/6
f 570/2/6 565/2/6 571/2/6
f 571/2/6 565/2/6 572/2/6
f 572/2/6 565/2/6 573/2/6
f 568/3/6 569/3/6 574/3/6
f 574/3/6 569/3/6 575/3/6
f 575/3/6 569/3/6 576/3/6
f 576/3/6 569/3/6 577/3/6
f 571/2/6 572/2/6 578/2/6
f 578/2/6 572/2/6 579/2/6
f 575/3/6 576/3/6 580/3/6
f 580/3/6 576/3/6 581/3/6
f 582/3/6 583/3/6 585/3/6
f 585/3/6 583/3/6 586/3/6
f 584/3/6 585/3/6 589/3/6
f 586/3/6 587/3/6 589/3/6
f 585/3/6 586/3/6 589/3/6
f 589/3/6 587/3/6 590/3/6
f 588/3/6 589/3/6 593/3/6
f 590/3/6 591/3/6 593/3/6
f 589/3/6 590/3/6 593/3/6
f 593/3/6 591/3/6 594/3/6
f 594/3/6 591/3/6 595/3/6
f 595/3/6 591/3/6 596/3/6
f 592/3/6 593/3/6 599/3/6
f 593/3/6 594/3/6 599/3/6
f 594/1/6 595/1/6 600/1/6
f 599/3/6 594/3/6 600/3/6
f 596/3/6 597/3/6 601/3/6
f 600/1/6 595/1/6 601/1/6
f 595/3/6 596/3/6 601/3/6
f 601/3/6 597/3/6 602/3/6
f 599/3/6 600/3/6 604/3/6
f 602/3/6 603/3/6 604/3/6
f 601/3/6 602/3/6 604/3/6
f 600/3/6 601/3/6 604/3/6
f 598/3/6 599/3/6 604/3/6
f 604/3/6 603/3/6 605/3/6
f 605/3/6 603/3/6 606/3/6
f 606/3/6 603/3/6 607/3/6
f 607/3/6 603/3/6 608/3/6
f 608/3/6 603/3/6 609/3/6
f 609/3/6 603/3/6 610/3/6
f 605/1/6 606/1/6 611/1/6
f 606/3/6 607/3/6 612/3/6
f 611/1/6 606/1/6 612/1/6
f 607/1/6 608/1/6 613/1/6
f 612/3/6 607/3/6 613/3/6
f 608/3/6 609/3/6 614/3/6
f 613/1/6 608/1/6 614/1/6
f 614/3/6 609/3/6 615/3/6
f 612/3/6 613/3/6 616/3/6
f 613/3/6 614/3/6 616/3/6
f 616/3/6 614/3/6 617/3/6
f 617/3/6 614/3/6 618/3/6
f 618/3/6 614/3/6 619/3/6
f 617/3/6 618/3/6 620/3/6
f 620/3/6 618/3/6 621/3/6
f 621/3/6 618/3/6 622/3/6
f 622/3/6 618/3/6 623/3/6
f 621/3/6 622/3/6 624/3/6
f 624/3/6 622/3/6 625/3/6
